<?xml version="1.0" encoding="UTF-8"?>
<svg id="Capa_2" data-name="Capa 2" xmlns="http://www.w3.org/2000/svg" viewBox="0 0 683.85 294.8">
  <defs>
    <style>
      .cls-1 {
        fill: #aabd99;
      }

      .cls-1, .cls-2 {
        stroke-width: 0px;
      }

      .cls-2 {
        fill: #3f4b3a;
      }
    </style>
  </defs>
  <g id="Capa_1-2" data-name="Capa 1">
    <path class="cls-2" d="M213.27,139.76c1.05-.69,2.1-2.03,3.13-4.03,1.05-1.97,1.99-4.1,2.82-6.38.82-2.28,1.47-4.12,1.93-5.52,3.39-8.64,6.45-17.19,9.2-25.65,2.74-8.47,5.87-17.14,9.37-26.02.58-1.51,1.59-4,3.05-7.45,1.47-3.45,3.2-7.36,5.18-11.73,1.99-4.38,4.18-8.83,6.56-13.31,2.39-4.5,4.84-8.68,7.36-12.54,2.51-3.85,4.96-6.97,7.36-9.37s4.59-3.59,6.58-3.59c2.68,0,4.66,1.32,5.95,3.94,1.28,2.63,2.01,5.94,2.19,9.92.17,3.97.09,8.08-.26,12.33s-.76,8.05-1.24,11.39c-.46,3.34-.81,5.59-1.04,6.76l-10.87,72.34c-1.88,12.95-3.32,25.62-4.31,37.98-.98,12.38-2.17,24.88-3.57,37.49-.23,3.16-.35,6.61-.35,10.35v10.49c0,1.51-.27,2.65-.81,3.42-.52.76-1.08,1.15-1.67,1.15-.69,0-1.37-.42-2.01-1.24-.63-.83-1.01-1.94-1.12-3.34-.12-1.52-.17-2.66-.17-3.42s-.07-1.65-.2-2.7l5.26-78.12c.93-7.36,1.78-14.16,2.53-20.41.76-6.25,1.59-12.55,2.47-18.92.88-6.36,1.96-13.4,3.25-21.1.35-1.97.86-5.06,1.55-9.26.7-4.21,1.47-8.95,2.27-14.2.82-5.25,1.55-10.5,2.19-15.76.65-5.27,1.01-9.95,1.06-14.03s-.32-6.99-1.12-8.74c-2.23,1.17-4.31,3.01-6.24,5.52-1.92,2.52-3.52,4.93-4.8,7.25-2.34,3.85-4.36,7.39-6.07,10.61-1.69,3.21-3.29,6.44-4.8,9.72-1.52,3.28-3.21,7.02-5.06,11.21-2.93,6.43-5.28,12.26-7.04,17.51-1.75,5.25-3.78,10.8-6.1,16.65-.6,1.52-1.45,4.11-2.56,7.79-1.11,3.68-2.43,7.78-3.94,12.28-1.52,4.49-3.16,8.8-4.92,12.94-1.75,4.14-3.56,7.58-5.43,10.32-1.86,2.76-3.72,4.14-5.58,4.14s-3.35-1.03-4.4-3.08c-1.04-2.03-1.77-4.57-2.19-7.62-.4-3.03-.6-6.05-.6-9.09s.06-5.5.17-7.36l2.65-35.05c0-.69-.07-1.47-.2-2.36-.12-.88-.17-1.96-.17-3.25-1.04.23-1.68.53-1.93.89-.23.35-.63.93-1.21,1.75-2.46,3.26-4.77,7.26-6.93,11.99-2.17,4.74-4.19,9.76-6.07,15.07-1.86,5.31-3.49,10.48-4.89,15.5-1.4,5.02-2.57,9.4-3.51,13.14-1.4,5.48-2.77,11.05-4.11,16.7-1.34,5.67-2.77,11.08-4.28,16.22-.94,3.97-2.06,7.88-3.34,11.73-1.29,3.85-2.75,7.71-4.37,11.56-.83,1.39-1.62,2.51-2.39,3.34-.75.82-2,1.24-3.74,1.24-2,0-3.69-1.5-5.09-4.49-1.4-2.98-2.52-6.8-3.34-11.47-.81-4.66-1.42-9.53-1.84-14.61-.4-5.08-.66-9.82-.78-14.2-.12-4.37-.17-7.67-.17-9.89l1.75-35.39c.58-5.48,1.21-10.93,1.9-16.36.7-5.42,1.47-10.83,2.3-16.22.12-.58.4-2.34.86-5.32.47-2.99,1.15-6.64,2.01-10.95.88-4.33,1.85-8.86,2.9-13.57,1.05-4.73,2.16-9.17,3.34-13.31,1.16-4.15,2.36-7.52,3.59-10.09,1.22-2.57,2.42-3.85,3.59-3.85,1.62,0,2.53.59,2.7,1.75.17,1.17.01,2.55-.46,4.14-.46,1.57-.86,2.95-1.21,4.11-1.86,6.66-3.38,12.69-4.54,18.11-1.17,5.43-2.26,10.92-3.25,16.47-1,5.54-2.03,11.87-3.08,19-.92,6.43-1.8,13.9-2.62,22.43-.83,8.51-1.5,17.47-2.01,26.88-.52,9.39-.66,18.52-.43,27.4.23,8.87.93,16.88,2.1,24.01l1.75,8.57c.93-.23,1.52-.62,1.75-1.15.23-.52.58-1.25,1.04-2.19l4.2-12.59c2.7-9.59,5.33-19.52,7.91-29.79,2.57-10.27,5.39-20.33,8.48-30.19,3.11-9.87,6.7-19.01,10.78-27.43,1.16-2.22,2.54-4.76,4.11-7.62,1.57-2.85,3.29-4.87,5.18-6.04,1.04-.7,2.19-1.06,3.48-1.06,1.99,0,3.34.82,4.05,2.44.92,1.65,1.44,4.64,1.55,8.97.12,4.31,0,9.16-.35,14.52-.35,5.37-.7,10.57-1.06,15.58-.35,5.02-.52,9.05-.52,12.08,0,3.51.14,6.15.43,7.91.3,1.74.46,3.54.46,5.41Z"/>
    <path class="cls-2" d="M294.7,114.37c0-2.91.64-6.21,1.93-9.89,1.28-3.68,2.98-7.45,5.09-11.3,2.11-3.85,4.35-7.5,6.73-10.95,2.39-3.45,4.7-6.33,6.93-8.65,1.99-2.11,3.19-3.51,3.59-4.2.4-.7.55-1.27.43-1.67-.12-.42-.06-1.33.17-2.73.24-1.62.69-3.28,1.32-4.97.65-1.7,1.38-3.26,2.19-4.66,2.11-3.51,5.12-6.8,9.03-9.89,3.91-3.11,7.94-5.59,12.08-7.45,4.15-1.88,7.52-2.82,10.09-2.82,2.8,0,4.2,1.11,4.2,3.34,0,1.17-.3,2.17-.89,2.99-.58.81-1.28,1.68-2.1,2.62l-6.81,6.12c-2.93,2.57-5.95,5.05-9.06,7.45-3.09,2.4-6.09,4.94-9,7.62-.83.83-1.8,1.88-2.9,3.16-1.09,1.29-2.11,2.21-3.05,2.79,1.16,4.79,2.98,9.36,5.43,13.69,2.45,4.31,5.43,8.22,8.94,11.73.58.46.92.81,1.04,1.04s.41.59.89,1.06l9.98,9.46c.69-.47,2.14-1.7,4.37-3.68,2.22-1.99,4.59-4.18,7.1-6.58,2.51-2.39,4.72-4.46,6.64-6.21,1.93-1.74,3.08-2.62,3.42-2.62,1.05,0,1.58.53,1.58,1.58,0,.69-.27,1.28-.81,1.75-.52.46-.95.92-1.29,1.38l-10.18,10.52c-.46.58-.91.99-1.32,1.24-.4.23-.89.63-1.47,1.21-.71.58-1.57,1.39-2.56,2.44-.98,1.06-1.77,1.94-2.36,2.65.82.35,2.25,1.46,4.28,3.34,2.05,1.86,4.1,3.85,6.15,5.95,2.05,2.09,3.48,3.67,4.28,4.72l3.51,3.68c.12.12.58.56,1.38,1.32.82.75,1.65,1.6,2.47,2.53.82.94,1.35,1.75,1.58,2.44.23.7-.19,1.06-1.24,1.06-.46,0-1.63-.65-3.51-1.93-1.86-1.28-3.96-2.85-6.3-4.72-2.34-1.88-4.51-3.66-6.5-5.35-1.98-1.7-3.38-2.96-4.2-3.77l-6.3-5.26c-2.46,2.09-4.41,3.9-5.87,5.43-1.46,1.52-3.7,3.44-6.73,5.78-3.39,2.46-7.1,4.77-11.13,6.93-4.03,2.14-8.15,3.22-12.36,3.22-3.74,0-7.3-1.11-10.67-3.34-3.51-2.34-5.76-5.19-6.76-8.57-1-3.39-1.5-7.07-1.5-11.04ZM314.34,131.37c3.03,0,6.08-.7,9.17-2.1,3.11-1.39,6.05-3.08,8.86-5.06,2.8-1.99,5.25-3.87,7.36-5.64.69-.58,1.82-1.56,3.39-2.96,1.59-1.39,2.62-2.39,3.08-2.99-.69-.93-1.95-2.25-3.77-3.94-1.8-1.68-3.18-3.05-4.11-4.11l-5.61-6.33c-1.4-1.39-3.04-3.52-4.92-6.38-1.86-2.85-3.52-5.76-4.97-8.74-1.46-2.99-2.3-5.36-2.53-7.1-2.82,3.15-5.8,6.97-8.94,11.47-3.15,4.49-5.83,9.16-8.05,14-2.23,4.85-3.34,9.5-3.34,13.94s1.01,8.05,3.05,11.21c2.05,3.15,5.12,4.72,9.2,4.72h2.13ZM325.35,62.88l6.84-5.78c1.99-1.88,4.15-3.74,6.47-5.61,2.34-1.88,4.56-3.63,6.67-5.26l4.89-4.37c.59-.35.89-.52.89-.52,0,0,.23-.29.69-.89-2.23.23-4.79,1.09-7.71,2.56-2.92,1.46-5.74,3.27-8.48,5.43-2.75,2.15-5.08,4.48-7.02,6.99-1.92,2.52-3,5-3.25,7.45Z"/>
    <path class="cls-2" d="M464.07,161.5c0-2.34.14-4.71.43-7.1.3-2.4.63-4.71.98-6.93l5.43-39.56c-1.52,0-3.5.39-5.95,1.15-2.46.75-4.5,1.29-6.12,1.64-6.08,1.75-12.79,4.14-20.16,7.19-7.36,3.03-14.55,6.38-21.56,10.06-7,3.68-13.07,7.39-18.2,11.13-1.06.82-1.73,1.44-2.01,1.84s-.49,1.42-.6,3.08c0,1.51-.06,2.65-.17,3.39-.12.76-.17,1.79-.17,3.08,2.08,0,4.36-.19,6.81-.55,2.45-.35,4.79-.52,7.02-.52,2.22-.12,4.43-.2,6.64-.26,2.22-.06,4.44-.09,6.67-.09,6.53,0,13.01.61,19.44,1.84,6.42,1.22,12.37,3.94,17.85,8.14.7.59,1.27,1.09,1.67,1.5.42.42,1.09.75,2.01.98ZM472.15,101.58c.46-2.22.86-4.52,1.21-6.9.35-2.39.7-4.7,1.06-6.93.92-4.9,2.11-10.85,3.57-17.85,1.47-7.02,3.08-14.29,4.83-21.82,1.76-7.53,3.51-14.65,5.26-21.36,1.74-6.71,3.37-12.34,4.89-16.91,1.3-3.74,2.16-6.3,2.56-7.71.4-1.39,1.3-2.1,2.7-2.1.47,0,.95.03,1.41.09s.93.14,1.41.26c.35,1.88.43,3.46.26,4.74-.17,1.29-.5,2.63-.98,4.03-.46,1.4-1.05,3.33-1.75,5.78-.81,3.15-1.88,7.58-3.22,13.31-1.34,5.71-2.81,12.05-4.4,19-1.57,6.94-3.09,13.86-4.54,20.76-1.46,6.89-2.72,13.13-3.77,18.75-1.06,5.6-1.7,9.91-1.93,12.94.59-.23,1.62-.49,3.08-.78,1.45-.29,2.94-.58,4.46-.86,1.51-.3,2.62-.52,3.34-.63,1.28-.23,3.8-.72,7.53-1.47,3.74-.76,7.91-1.5,12.51-2.19,4.61-.7,8.74-1.06,12.36-1.06,2.68,0,4.9.29,6.64.86,1.76.58,2.52,1.63,2.27,3.16-.12.81-.47,1.37-1.06,1.67-.58.29-1.27.43-2.07.43-.48,0-1.05-.03-1.7-.09-.63-.06-1.24-.09-1.81-.09h-.86c-4.79,0-9.97.47-15.53,1.41-5.54.92-10.65,1.74-15.32,2.44l-15.07,3.13-8.4,57.1c-.71,4.21-1.06,7.14-1.06,8.77s.12,2.7.35,3.22c.24.53.52,1.15.81,1.84.29.7.43,2.23.43,4.57v5.87c0,1.45-.12,2.88-.35,4.28-.23,1.39-.7,3.38-1.41,5.95-.69,2.7-1.51,4.57-2.44,5.61-.94,1.05-1.87,1.58-2.79,1.58-1.06,0-1.94-.45-2.65-1.32-.69-.86-1.04-1.83-1.04-2.88,0-4.91.17-8.97.52-12.19.35-3.21.58-6.84.69-10.93.12-2.92.2-4.99.26-6.21.06-1.23-.27-2.29-.98-3.16-.69-.88-2.03-2.14-4-3.77-3.16-2.69-7.37-4.91-12.62-6.67-5.25-1.75-10.8-2.62-16.65-2.62-1.4,0-3.77.03-7.1.09-3.32.06-6.87.12-10.67.17s-7.07.17-9.8.35c-2.75.19-4.28.46-4.63.81l-2.3,22.77c-.23,1.97-.4,3.98-.52,6.04-.12,2.05-.17,4-.17,5.87l-1.75,23.84c-.12,2.2-.2,4.12-.26,5.75-.06,1.65-1.32,2.47-3.77,2.47-.94,0-1.74-.53-2.39-1.58-.63-1.06-.95-2.11-.95-3.16,0-6.54.14-12.79.43-18.75.3-5.94.46-11.6.46-16.96,0-3.16.32-7.23.95-12.19.65-4.97.98-9.78.98-14.43-3.39-.25-4.97-1.75-4.74-4.49.23-2.75,1.57-5.34,4.03-7.79,1.39-1.4,2.13-2.57,2.19-3.51.06-.92.15-2.55.29-4.89.23-3.28.55-6.57.95-9.89.4-3.34.6-6.64.6-9.92l1.93-19.95c1.88-14.01,3.89-28.02,6.04-42.04,2.16-14.01,4.64-27.96,7.45-41.86.59-2.34.92-3.94.98-4.8.06-.88.2-1.47.43-1.75.23-.3.75-.63,1.58-.98l.26-.35c.17-.23.5-.35.98-.35.58,0,1.16.23,1.75.69.92.69,1.44,2.06,1.55,4.11.13,2.06.04,4.33-.26,6.84-.29,2.52-.65,4.79-1.06,6.84-.4,2.03-.66,3.39-.78,4.08-.81,4.45-1.71,10.03-2.7,16.73-1,6.71-2.03,13.8-3.08,21.28-1.06,7.48-2,14.61-2.82,21.39-.81,6.77-1.38,12.44-1.73,16.99-.46,5-1.08,10.11-1.84,15.32-.77,5.2-1.15,10.42-1.15,15.67.59-.12,2.66-1.31,6.21-3.59,3.57-2.28,8.55-5.1,14.98-8.48,6.44-3.39,14.15-6.84,23.15-10.35,8.98-3.51,19.09-6.54,30.3-9.11Z"/>
    <path class="cls-1" d="M0,253.97v-4.54h32.4v4.54h-15.55c.82,0,1.29.27,1.41.81.13.54.2,1.14.2,1.78v38.24h-4.54v-38.24c0-.99-.19-1.67-.58-2.04-.39-.36-.95-.55-1.7-.55H0Z"/>
    <path class="cls-1" d="M78.56,294.8c-4.54,0-8.51-.95-11.9-2.85s-6.04-4.54-7.94-7.94-2.85-7.36-2.85-11.9.95-8.52,2.85-11.93c1.9-3.41,4.54-6.05,7.94-7.94,3.39-1.88,7.36-2.82,11.9-2.82s8.49.94,11.9,2.82c3.41,1.88,6.05,4.53,7.94,7.94,1.88,3.41,2.82,7.39,2.82,11.93s-.94,8.51-2.82,11.9c-1.88,3.39-4.53,6.04-7.94,7.94-3.41,1.9-7.38,2.85-11.9,2.85ZM60.07,272.11c0,3.68.76,6.91,2.3,9.69,1.53,2.78,3.69,4.94,6.47,6.47,2.8,1.54,6.04,2.3,9.72,2.3s6.93-.76,9.69-2.3c2.77-1.53,4.93-3.69,6.47-6.47,1.53-2.77,2.3-6.01,2.3-9.69s-.77-6.96-2.3-9.72c-1.54-2.76-3.69-4.9-6.47-6.44-2.76-1.53-5.99-2.3-9.69-2.3s-6.92.77-9.72,2.3c-2.78,1.54-4.94,3.68-6.47,6.44-1.54,2.76-2.3,6-2.3,9.72Z"/>
    <path class="cls-1" d="M129.22,294.8h-4.51v-45.37h17.05c4.61,0,8.32,1.24,11.13,3.71,2.82,2.46,4.23,5.97,4.23,10.55,0,3.68-.94,6.61-2.82,8.8-1.88,2.17-4.42,3.59-7.62,4.28l10.35,18.03h-5.23l-8.48-14.78c-.69-1.07-1.34-1.79-1.96-2.16-.62-.38-1.41-.58-2.39-.58h-7.13c-.65,0-1.26.17-1.81.49-.54.33-.81.82-.81,1.47v15.55ZM129.22,253.97v19.44s.16-.1.49-.32c.32-.21.81-.32,1.47-.32h10.58c3.18,0,5.82-.7,7.94-2.13,2.13-1.44,3.19-3.75,3.19-6.96s-1-5.61-2.99-7.25c-1.98-1.65-4.69-2.47-8.14-2.47h-12.54Z"/>
    <path class="cls-1" d="M186.39,294.8h-4.51v-45.37h17.05c4.61,0,8.32,1.24,11.13,3.71,2.82,2.46,4.23,5.97,4.23,10.55,0,3.68-.94,6.61-2.82,8.8-1.88,2.17-4.42,3.59-7.62,4.28l10.35,18.03h-5.23l-8.48-14.78c-.69-1.07-1.34-1.79-1.96-2.16-.62-.38-1.41-.58-2.39-.58h-7.13c-.65,0-1.26.17-1.81.49-.54.33-.81.82-.81,1.47v15.55ZM186.39,253.97v19.44s.16-.1.49-.32c.32-.21.81-.32,1.47-.32h10.58c3.18,0,5.82-.7,7.94-2.13,2.13-1.44,3.19-3.75,3.19-6.96s-1-5.61-2.99-7.25c-1.98-1.65-4.69-2.47-8.14-2.47h-12.54Z"/>
    <path class="cls-1" d="M239.04,249.43h32.4v4.54h-25.93c-1.31,0-1.96.65-1.96,1.96v13.6s.16-.1.49-.32c.32-.23.81-.35,1.47-.35h22.69v4.54h-22.02c-.65,0-1.26.14-1.81.43-.54.27-.81.78-.81,1.52v14.89h27.89v4.54h-32.4v-45.37Z"/>
    <path class="cls-1" d="M296.21,294.8v-45.37h5.23l20.93,36.28,21.02-36.28h5.23v45.37h-4.54l.09-34.99c0-.65-.17-.98-.52-.98-.31,0-.65.33-1.04.98l-20.16,34.93-20.24-34.93c-.42-.65-.77-.98-1.04-.98-.31,0-.46.33-.46.98v34.99h-4.51Z"/>
    <path class="cls-1" d="M394.73,294.8c-4.54,0-8.51-.95-11.9-2.85s-6.04-4.54-7.94-7.94-2.85-7.36-2.85-11.9.95-8.52,2.85-11.93c1.9-3.41,4.54-6.05,7.94-7.94,3.39-1.88,7.36-2.82,11.9-2.82s8.49.94,11.9,2.82c3.41,1.88,6.05,4.53,7.94,7.94,1.88,3.41,2.82,7.39,2.82,11.93s-.94,8.51-2.82,11.9c-1.88,3.39-4.53,6.04-7.94,7.94-3.41,1.9-7.38,2.85-11.9,2.85ZM376.25,272.11c0,3.68.76,6.91,2.3,9.69,1.53,2.78,3.69,4.94,6.47,6.47,2.8,1.54,6.04,2.3,9.72,2.3s6.93-.76,9.69-2.3c2.77-1.53,4.93-3.69,6.47-6.47,1.53-2.77,2.3-6.01,2.3-9.69s-.77-6.96-2.3-9.72c-1.54-2.76-3.69-4.9-6.47-6.44-2.76-1.53-5.99-2.3-9.69-2.3s-6.92.77-9.72,2.3c-2.78,1.54-4.94,3.68-6.47,6.44-1.54,2.76-2.3,6-2.3,9.72Z"/>
    <path class="cls-1" d="M473.28,294.8h-32.4v-45.37h4.51v38.9c0,1.29.65,1.93,1.96,1.93h25.93v4.54Z"/>
    <path class="cls-1" d="M498.05,294.8v-45.37h4.51v45.37h-4.51Z"/>
    <path class="cls-1" d="M527.35,249.43h6.01l20.5,29.1c.29.45.56.66.83.66.35,0,.52-.22.52-.66v-29.1h4.54v45.37l-27.89-39.59v39.59h-4.51v-45.37Z"/>
    <path class="cls-1" d="M605.91,294.8c-4.54,0-8.51-.95-11.9-2.85s-6.04-4.54-7.94-7.94-2.85-7.36-2.85-11.9.95-8.52,2.85-11.93c1.9-3.41,4.54-6.05,7.94-7.94,3.39-1.88,7.36-2.82,11.9-2.82s8.49.94,11.9,2.82c3.41,1.88,6.05,4.53,7.94,7.94,1.88,3.41,2.82,7.39,2.82,11.93s-.94,8.51-2.82,11.9c-1.88,3.39-4.53,6.04-7.94,7.94-3.41,1.9-7.38,2.85-11.9,2.85ZM587.42,272.11c0,3.68.76,6.91,2.3,9.69,1.53,2.78,3.69,4.94,6.47,6.47,2.8,1.54,6.04,2.3,9.72,2.3s6.93-.76,9.69-2.3c2.77-1.53,4.93-3.69,6.47-6.47,1.53-2.77,2.3-6.01,2.3-9.69s-.77-6.96-2.3-9.72c-1.54-2.76-3.69-4.9-6.47-6.44-2.76-1.53-5.99-2.3-9.69-2.3s-6.92.77-9.72,2.3c-2.78,1.54-4.94,3.68-6.47,6.44-1.54,2.76-2.3,6-2.3,9.72Z"/>
    <path class="cls-1" d="M653.81,261.73c0-2.66.6-4.95,1.81-6.87,1.21-1.93,2.89-3.43,5.06-4.49,2.19-1.05,4.7-1.58,7.56-1.58,4.06,0,7.48,1.05,10.24,3.13,2.77,2.09,4.57,4.93,5.38,8.51l-4.34,1.29c-.63-2.72-1.98-4.81-4.05-6.27-2.06-1.47-4.48-2.21-7.27-2.21-1.83,0-3.47.37-4.95,1.09-1.46.71-2.62,1.71-3.48,2.99-.86,1.27-1.29,2.73-1.29,4.4,0,1.31.46,2.36,1.38,3.16.93.79,2.14,1.43,3.62,1.93,1.5.5,3.15.97,4.97,1.41,1.82.42,3.62.94,5.41,1.55,1.8.62,3.44,1.4,4.92,2.36,1.5.94,2.7,2.19,3.62,3.74.93,1.55,1.41,3.54,1.41,5.95.04,2.65-.65,4.95-2.07,6.9-1.42,1.94-3.31,3.44-5.66,4.49-2.36,1.06-4.97,1.58-7.82,1.58-3.28,0-6.14-.68-8.57-2.04-2.42-1.36-4.3-3.25-5.64-5.66-1.32-2.42-1.98-5.22-1.98-8.42h4.46c0,3.41,1.05,6.21,3.16,8.4,2.13,2.17,4.96,3.25,8.51,3.25,1.99,0,3.8-.35,5.43-1.04,1.65-.69,2.98-1.67,4-2.93,1.01-1.28,1.54-2.79,1.58-4.51.09-1.85-.31-3.34-1.21-4.46-.88-1.13-2.07-2.03-3.57-2.7-1.48-.67-3.13-1.22-4.95-1.67-1.83-.46-3.65-.93-5.49-1.44-1.83-.5-3.5-1.11-5.03-1.84-1.54-.75-2.78-1.75-3.74-3.02-.94-1.28-1.41-2.94-1.41-4.97Z"/>
  </g>
</svg>